<?xml version="1.0" encoding="utf-8"?>
<!-- Generator: Adobe Illustrator 16.0.0, SVG Export Plug-In . SVG Version: 6.00 Build 0)  -->
<!DOCTYPE svg PUBLIC "-//W3C//DTD SVG 1.1//EN" "http://www.w3.org/Graphics/SVG/1.1/DTD/svg11.dtd">
<svg version="1.1" xmlns="http://www.w3.org/2000/svg" xmlns:xlink="http://www.w3.org/1999/xlink" x="0px" y="0px" width="576px"
	 height="736px" viewBox="0 0 576 736" enable-background="new 0 0 576 736" xml:space="preserve">
<g id="Layer_0_xA0_Image_1_">
	<path fill-rule="evenodd" clip-rule="evenodd" fill="#08889B" d="M21.075,442.996c-1.143-25.997,17.799-54.682,43.829-66.276
		c13.907-6.194,28.555-8.959,43.724-8.969c52.317-0.036,104.634-0.014,156.952-0.014c7.496-0.001,7.496-0.001,7.496-7.744
		c0-33.156,0.152-66.314-0.15-99.468c-0.05-5.5,1.694-6.428,6.637-6.358c12.482,0.178,25.12,0.904,37.432-0.662
		c31.213-3.971,57.371-30.227,63.183-61.961c4.722-25.781-2.854-47.655-21.093-66.119c-0.696-0.705-1.445-1.357-2.154-2.052
		c-0.107-0.105-0.125-0.303-0.348-0.889c1.324-0.119,2.535-0.324,3.745-0.325c33.323-0.017,66.646,0.036,99.969-0.088
		c3.405-0.014,5.334,1.016,7.136,3.963c49.688,81.241,37.231,187.665-30.01,255.181c-35.146,35.289-77.482,55.622-127.029,60.949
		c-1.842,0.198-3.598,1.206-5.393,1.836c-0.334,0-0.666,0-1,0c-1.436-0.588-2.85-1.595-4.31-1.667
		c-2.274-0.111-4.581,0.635-6.874,0.636C202.236,443.005,111.656,442.998,21.075,442.996z"/>
	<path fill-rule="evenodd" clip-rule="evenodd" fill="#E27222" d="M558,32c-0.645,1.449-1.588,2.839-1.89,4.355
		c-6.744,33.897-30.327,56.905-64.871,62.643c-8.333,1.384-16.871,2.14-25.316,2.157c-79.138,0.159-158.274,0.148-237.412-0.031
		c-5.136-0.012-6.274,1.332-6.263,6.345c0.17,77.805,0.075,155.609,0.228,233.413c0.009,4.736-1.041,6.133-5.965,6.098
		c-32.986-0.235-65.975-0.167-98.962-0.053c-3.194,0.011-5.067-0.867-6.807-3.672c-49.647-80.005-37.35-187.788,28.851-254.563
		c32.367-32.648,71.063-52.749,116.297-60.42c3.929-0.667,7.946-0.803,11.882-1.438c1.47-0.237,2.823-1.201,4.229-1.833
		c93,0,186,0,279,0C558,25,558,25,558,32z"/>
	<path fill-rule="evenodd" clip-rule="evenodd" fill="#138D9F" d="M21.075,442.996c90.581,0.002,181.161,0.009,271.741-0.027
		c2.293-0.001,4.6-0.747,6.874-0.636c1.46,0.072,2.874,1.079,4.31,1.667c-94.333,0-188.667,0-283,0
		C21.025,443.665,21.05,443.331,21.075,442.996z"/>
	<path fill-rule="evenodd" clip-rule="evenodd" fill="#0A899C" d="M273.07,177.572c0-7.654,0.119-15.311-0.062-22.96
		c-0.068-2.859,0.843-3.677,3.663-3.641c11.313,0.145,22.629-0.054,33.942,0.109c6.195,0.09,11.13,3.084,14.943,7.86
		c7.805,9.775,8.349,26.266,1.2,36.558c-4.165,5.996-9.914,9.239-17.28,9.277c-10.648,0.054-21.303-0.182-31.944,0.115
		c-3.978,0.11-4.669-1.306-4.543-4.86C273.255,192.554,273.07,185.06,273.07,177.572z"/>
</g>
<g id="STUDIO">
	<g>
		<path fill="#E37222" d="M139.245,658.214c0-2.757-0.976-4.905-2.927-6.445c-1.952-1.539-5.38-3.133-10.286-4.78
			c-4.906-1.646-8.916-3.24-12.031-4.78c-10.134-4.977-15.2-11.816-15.2-20.518c0-4.332,1.262-8.155,3.787-11.468
			c2.524-3.312,6.096-5.89,10.715-7.734c4.619-1.844,9.811-2.766,15.576-2.766c5.621,0,10.662,1.003,15.12,3.008
			c4.458,2.006,7.922,4.861,10.393,8.566c2.471,3.707,3.706,7.941,3.706,12.703h-18.799c0-3.187-0.976-5.657-2.927-7.412
			c-1.952-1.754-4.592-2.632-7.922-2.632c-3.366,0-6.025,0.743-7.976,2.229c-1.952,1.485-2.927,3.375-2.927,5.666
			c0,2.006,1.074,3.822,3.223,5.451c2.148,1.63,5.926,3.313,11.333,5.049c5.406,1.737,9.847,3.608,13.32,5.613
			c8.45,4.87,12.676,11.584,12.676,20.142c0,6.84-2.578,12.211-7.734,16.113c-5.156,3.903-12.229,5.854-21.216,5.854
			c-6.338,0-12.077-1.137-17.214-3.41c-5.139-2.274-9.006-5.39-11.602-9.346c-2.597-3.957-3.894-8.514-3.894-13.67h18.906
			c0,4.189,1.083,7.277,3.25,9.266c2.166,1.986,5.684,2.98,10.554,2.98c3.115,0,5.577-0.672,7.385-2.014
			C138.34,662.537,139.245,660.649,139.245,658.214z"/>
		<path fill="#E37222" d="M229.157,615.353h-23.472V679h-18.853v-63.647h-23.042v-14.556h65.366V615.353z"/>
		<path fill="#E37222" d="M298.444,600.797v51.187c0,5.801-1.235,10.823-3.706,15.065c-2.471,4.244-6.016,7.476-10.635,9.695
			c-4.619,2.221-10.08,3.33-16.382,3.33c-9.525,0-17.026-2.471-22.505-7.412s-8.271-11.709-8.379-20.303v-51.563h18.96v51.938
			c0.215,8.559,4.189,12.837,11.924,12.837c3.902,0,6.856-1.074,8.862-3.223c2.005-2.148,3.008-5.64,3.008-10.474v-51.079H298.444z"
			/>
		<path fill="#E37222" d="M310.207,679v-78.203h25.19c6.91,0,13.123,1.566,18.638,4.699c5.514,3.134,9.82,7.556,12.918,13.268
			c3.097,5.711,4.663,12.111,4.699,19.201v3.599c0,7.162-1.513,13.58-4.539,19.255c-3.025,5.676-7.286,10.116-12.783,13.32
			c-5.496,3.205-11.628,4.826-18.396,4.861H310.207z M329.06,615.353v49.146h6.553c5.406,0,9.561-1.925,12.461-5.773
			c2.9-3.85,4.351-9.569,4.351-17.161v-3.384c0-7.555-1.45-13.248-4.351-17.08c-2.9-3.831-7.126-5.747-12.676-5.747H329.06z"/>
		<path fill="#E37222" d="M401.408,679h-18.799v-78.203h18.799V679z"/>
		<path fill="#E37222" d="M480.739,641.51c0,7.627-1.415,14.377-4.243,20.249c-2.829,5.873-6.848,10.394-12.059,13.562
			c-5.209,3.17-11.145,4.754-17.805,4.754s-12.568-1.531-17.725-4.592c-5.156-3.063-9.176-7.439-12.059-13.133
			c-2.882-5.693-4.396-12.228-4.538-19.604v-4.404c0-7.662,1.405-14.421,4.216-20.276c2.812-5.854,6.84-10.374,12.086-13.562
			c5.245-3.187,11.216-4.78,17.912-4.78c6.624,0,12.532,1.576,17.725,4.727c5.191,3.151,9.229,7.636,12.111,13.455
			c2.883,5.818,4.342,12.487,4.378,20.007V641.51z M461.564,638.233c0-7.77-1.298-13.669-3.895-17.698
			c-2.596-4.027-6.311-6.042-11.145-6.042c-9.453,0-14.448,7.09-14.985,21.27l-0.054,5.747c0,7.663,1.271,13.554,3.813,17.671
			c2.542,4.118,6.319,6.177,11.333,6.177c4.762,0,8.433-2.022,11.011-6.069c2.578-4.046,3.885-9.864,3.921-17.456V638.233z"/>
	</g>
</g>
<g id="PROSULTS">
	<g>
		<path fill="#07889B" d="M39.761,546.467V573H20.908v-78.203h31.206c5.979,0,11.27,1.102,15.872,3.303
			c4.601,2.203,8.164,5.336,10.688,9.4c2.524,4.063,3.787,8.674,3.787,13.83c0,7.627-2.731,13.723-8.191,18.289
			c-5.461,4.564-12.954,6.848-22.478,6.848H39.761z M39.761,531.911h12.354c3.652,0,6.436-0.913,8.352-2.739
			c1.915-1.826,2.874-4.404,2.874-7.734c0-3.652-0.985-6.57-2.954-8.755c-1.97-2.184-4.655-3.294-8.057-3.33H39.761V531.911z"/>
		<path fill="#07889B" d="M121.563,545.339h-10.205V573H92.505v-78.203h30.776c9.273,0,16.524,2.057,21.753,6.17
			c5.228,4.114,7.842,9.927,7.842,17.438c0,5.438-1.101,9.944-3.303,13.521c-2.202,3.576-5.649,6.475-10.339,8.691l16.328,31.576
			V573h-20.195L121.563,545.339z M111.357,530.837h11.924c3.58,0,6.275-0.941,8.083-2.826c1.808-1.886,2.712-4.515,2.712-7.89
			c0-3.373-0.913-6.021-2.739-7.941s-4.512-2.881-8.057-2.881h-11.924V530.837z"/>
		<path fill="#07889B" d="M230.488,535.51c0,7.627-1.415,14.377-4.243,20.249c-2.829,5.873-6.848,10.394-12.058,13.562
			c-5.21,3.17-11.145,4.754-17.805,4.754s-12.568-1.531-17.725-4.592c-5.156-3.063-9.176-7.439-12.058-13.133
			c-2.883-5.693-4.396-12.228-4.539-19.604v-4.404c0-7.662,1.405-14.421,4.216-20.276c2.811-5.854,6.839-10.374,12.085-13.562
			c5.245-3.187,11.216-4.78,17.913-4.78c6.624,0,12.532,1.576,17.725,4.727c5.191,3.151,9.229,7.636,12.112,13.455
			c2.882,5.818,4.341,12.487,4.377,20.007V535.51z M211.313,532.233c0-7.77-1.298-13.669-3.894-17.698
			c-2.597-4.027-6.311-6.042-11.145-6.042c-9.453,0-14.448,7.09-14.985,21.27l-0.054,5.747c0,7.663,1.271,13.554,3.813,17.671
			c2.542,4.118,6.319,6.177,11.333,6.177c4.762,0,8.433-2.022,11.011-6.069c2.578-4.046,3.885-9.864,3.921-17.456V532.233z"/>
		<path fill="#07889B" d="M280.547,552.214c0-2.757-0.976-4.905-2.927-6.445c-1.952-1.539-5.38-3.133-10.286-4.78
			c-4.906-1.646-8.916-3.24-12.031-4.78c-10.134-4.977-15.2-11.816-15.2-20.518c0-4.332,1.262-8.155,3.787-11.468
			c2.524-3.312,6.096-5.89,10.715-7.734c4.619-1.844,9.811-2.766,15.576-2.766c5.621,0,10.662,1.003,15.12,3.008
			c4.458,2.006,7.922,4.861,10.393,8.566c2.471,3.707,3.706,7.941,3.706,12.703h-18.799c0-3.187-0.976-5.657-2.927-7.412
			c-1.952-1.754-4.592-2.632-7.922-2.632c-3.366,0-6.025,0.743-7.976,2.229c-1.952,1.485-2.927,3.375-2.927,5.666
			c0,2.006,1.074,3.822,3.223,5.451c2.148,1.63,5.926,3.313,11.333,5.049c5.406,1.737,9.847,3.608,13.32,5.613
			c8.45,4.87,12.676,11.584,12.676,20.142c0,6.84-2.578,12.211-7.734,16.113c-5.156,3.903-12.229,5.854-21.216,5.854
			c-6.338,0-12.077-1.137-17.214-3.41c-5.139-2.274-9.006-5.39-11.602-9.346c-2.597-3.957-3.894-8.514-3.894-13.67h18.906
			c0,4.189,1.083,7.277,3.25,9.266c2.166,1.986,5.684,2.98,10.554,2.98c3.115,0,5.577-0.672,7.385-2.014
			C279.642,556.537,280.547,554.649,280.547,552.214z"/>
		<path fill="#07889B" d="M370.405,494.797v51.187c0,5.801-1.235,10.823-3.706,15.065c-2.471,4.244-6.016,7.476-10.635,9.695
			c-4.619,2.221-10.08,3.33-16.382,3.33c-9.525,0-17.026-2.471-22.505-7.412s-8.271-11.709-8.379-20.303v-51.563h18.96v51.938
			c0.215,8.559,4.189,12.837,11.924,12.837c3.902,0,6.856-1.074,8.862-3.223c2.005-2.148,3.008-5.64,3.008-10.474v-51.079H370.405z"
			/>
		<path fill="#07889B" d="M401.021,558.498h32.817V573h-51.67v-78.203h18.853V558.498z"/>
		<path fill="#07889B" d="M492.168,509.353h-23.472V573h-18.853v-63.647h-23.042v-14.556h65.366V509.353z"/>
		<path fill="#07889B" d="M539.595,552.214c0-2.757-0.976-4.905-2.927-6.445c-1.952-1.539-5.381-3.133-10.286-4.78
			c-4.906-1.646-8.916-3.24-12.031-4.78c-10.134-4.977-15.2-11.816-15.2-20.518c0-4.332,1.262-8.155,3.787-11.468
			c2.523-3.312,6.096-5.89,10.715-7.734c4.619-1.844,9.811-2.766,15.576-2.766c5.621,0,10.662,1.003,15.119,3.008
			c4.459,2.006,7.923,4.861,10.394,8.566c2.471,3.707,3.706,7.941,3.706,12.703h-18.799c0-3.187-0.976-5.657-2.928-7.412
			c-1.951-1.754-4.592-2.632-7.922-2.632c-3.366,0-6.024,0.743-7.977,2.229c-1.951,1.485-2.927,3.375-2.927,5.666
			c0,2.006,1.074,3.822,3.223,5.451c2.148,1.63,5.926,3.313,11.333,5.049c5.406,1.737,9.847,3.608,13.32,5.613
			c8.45,4.87,12.676,11.584,12.676,20.142c0,6.84-2.578,12.211-7.734,16.113c-5.156,3.903-12.229,5.854-21.216,5.854
			c-6.338,0-12.076-1.137-17.214-3.41c-5.139-2.274-9.006-5.39-11.602-9.346c-2.597-3.957-3.895-8.514-3.895-13.67h18.906
			c0,4.189,1.083,7.277,3.25,9.266c2.166,1.986,5.684,2.98,10.554,2.98c3.115,0,5.577-0.672,7.386-2.014
			C538.69,556.537,539.595,554.649,539.595,552.214z"/>
	</g>
</g>
</svg>
